<svg
	width="100%"
	height="100%"
	viewBox="0 0 512 512"
	version="1.1"
	xmlns="http://www.w3.org/2000/svg"
	xmlns:xlink="http://www.w3.org/1999/xlink"
	xml:space="preserve"
	xmlns:serif="http://www.serif.com/"
	style="fill-rule: evenodd; clip-rule: evenodd; stroke-linejoin: round; stroke-miterlimit: 2"
>
	<g transform="matrix(12.8805,0,0,11.9751,-2837.08,-2633.52)">
		<path
			d="M229.611,222.894l-0.45,0.05l-1.85,0l-0.1,0.35l-0.3,1.5l-0.2,0.3l-2.7,6.75l0.25,0.55l-0.9,0.65l-2.7,6.55l-0.4,0.25l0.1,3.15l1.2,2.55l1.8,4.25l1.5,3.1l0.55,0l-0.15,0.85l1.75,4.35l0.05,1.65l4.55,0.05l0.1,-0.55l0.6,-1.6l2.7,-6.4l1.15,-2.4l0.05,-0.8l0.4,-0.5l2.45,-4.95l0.15,-2.75l-1.7,-3.7l-1.35,-3l-0.5,0l-0.25,-1.35l-2.55,-6.25l-1,-2.75l-2.25,0.1Zm0.1,30.5l-2.2,-5.75l-1,-2.05l-1,-0.7l0.5,-0.6l-0.45,-1.45l-0.65,-1.65l-0.05,-0.6l1.65,-4.3l-0.35,-0.8l0.7,-0.2l2.75,-7.25l0.3,0.95l1.15,3.05l0.9,0.55l-0.45,0.6l1.95,5.05l0.6,1.7l0.4,1.25l-2.45,6l0.05,0.9l0.05,0l-0.6,0.6l-1.6,5.25l-0.2,-0.55Z"
			style="fill-rule: nonzero"
			fill="currentColor"
		/>
	</g>
	<g transform="matrix(12.8805,0,0,11.9751,-2837.08,-2633.52)">
		<path
			d="M250.411,222.894l-0.45,0.05l-1.85,0l-0.1,0.35l-0.3,1.5l-0.2,0.3l-2.7,6.75l0.25,0.55l-0.9,0.65l-2.7,6.55l-0.4,0.25l0.1,3.15l1.2,2.55l1.8,4.25l1.5,3.1l0.55,0l-0.15,0.85l1.75,4.35l0.05,1.65l4.55,0.05l0.1,-0.55l0.6,-1.6l2.7,-6.4l1.15,-2.4l0.05,-0.8l0.4,-0.5l2.45,-4.95l0.15,-2.75l-1.7,-3.7l-1.35,-3l-0.5,0l-0.25,-1.35l-2.55,-6.25l-1,-2.75l-2.25,0.1Zm0.1,30.5l-2.2,-5.75l-1,-2.05l-1,-0.7l0.5,-0.6l-0.45,-1.45l-0.65,-1.65l-0.05,-0.6l1.65,-4.3l-0.35,-0.8l0.7,-0.2l2.75,-7.25l0.3,0.95l1.15,3.05l0.9,0.55l-0.45,0.6l1.95,5.05l0.6,1.7l0.4,1.25l-2.45,6l0.05,0.9l0.05,0l-0.6,0.6l-1.6,5.25l-0.2,-0.55Z"
			style="fill-rule: nonzero"
			fill="currentColor"
		/>
	</g>
</svg>
